<?xml version="1.0" encoding="UTF-8"?>
<svg xmlns="http://www.w3.org/2000/svg" xmlns:xlink="http://www.w3.org/1999/xlink" width="3001" height="3001" viewBox="0 0 3001 3001">
<path fill-rule="evenodd" fill="rgb(100%, 100%, 100%)" fill-opacity="1" d="M 1 0 L 3001 0 L 3001 3000 L 1 3000 L 1 0 "/>
<path fill-rule="nonzero" fill="rgb(0%, 0%, 0%)" fill-opacity="1" d="M 1221.890625 1351.660156 L 1314.921875 1351.660156 C 1321.28125 1351.660156 1326.449219 1356.820312 1326.449219 1363.199219 L 1326.449219 1456.371094 C 1326.449219 1462.738281 1321.28125 1467.910156 1314.921875 1467.910156 L 1221.890625 1467.910156 C 1215.53125 1467.910156 1210.371094 1462.738281 1210.371094 1456.371094 L 1210.371094 1363.199219 C 1210.371094 1356.820312 1215.53125 1351.660156 1221.890625 1351.660156 Z M 1303.398438 1374.738281 L 1233.421875 1374.738281 L 1233.421875 1444.828125 L 1303.398438 1444.828125 Z M 1687.089844 1780.328125 L 1780.121094 1780.328125 C 1786.480469 1780.328125 1791.648438 1785.5 1791.648438 1791.871094 L 1791.648438 1885.03125 C 1791.648438 1891.398438 1786.480469 1896.570312 1780.121094 1896.570312 L 1687.089844 1896.570312 C 1680.730469 1896.570312 1675.570312 1891.398438 1675.570312 1885.03125 L 1675.570312 1791.871094 C 1675.570312 1785.5 1680.730469 1780.328125 1687.089844 1780.328125 Z M 1768.601562 1803.410156 L 1698.621094 1803.410156 L 1698.621094 1873.488281 L 1768.601562 1873.488281 Z M 989.289062 1780.328125 L 1082.339844 1780.328125 C 1088.699219 1780.328125 1093.859375 1785.5 1093.859375 1791.871094 L 1093.859375 1885.03125 C 1093.859375 1891.398438 1088.699219 1896.570312 1082.339844 1896.570312 L 989.289062 1896.570312 C 982.925781 1896.570312 977.761719 1891.398438 977.761719 1885.03125 L 977.761719 1791.871094 C 977.761719 1785.5 982.925781 1780.328125 989.289062 1780.328125 Z M 1070.808594 1803.410156 L 1000.808594 1803.410156 L 1000.808594 1873.488281 L 1070.808594 1873.488281 Z M 1454.480469 1780.328125 L 1547.511719 1780.328125 C 1553.878906 1780.328125 1559.039062 1785.5 1559.039062 1791.871094 L 1559.039062 1885.03125 C 1559.039062 1891.398438 1553.878906 1896.570312 1547.511719 1896.570312 L 1454.480469 1896.570312 C 1448.121094 1896.570312 1442.960938 1891.398438 1442.960938 1885.03125 L 1442.960938 1791.871094 C 1442.960938 1785.5 1448.121094 1780.328125 1454.480469 1780.328125 Z M 1535.988281 1803.410156 L 1466.011719 1803.410156 L 1466.011719 1873.488281 L 1535.988281 1873.488281 Z M 1221.890625 1780.328125 L 1314.921875 1780.328125 C 1321.28125 1780.328125 1326.449219 1785.5 1326.449219 1791.871094 L 1326.449219 1885.03125 C 1326.449219 1891.398438 1321.28125 1896.570312 1314.921875 1896.570312 L 1221.890625 1896.570312 C 1215.53125 1896.570312 1210.371094 1891.398438 1210.371094 1885.03125 L 1210.371094 1791.871094 C 1210.371094 1785.5 1215.53125 1780.328125 1221.890625 1780.328125 Z M 1303.398438 1803.410156 L 1233.421875 1803.410156 L 1233.421875 1873.488281 L 1303.398438 1873.488281 Z M 989.289062 1566 L 1082.339844 1566 C 1088.699219 1566 1093.859375 1571.171875 1093.859375 1577.539062 L 1093.859375 1670.699219 C 1093.859375 1677.070312 1088.699219 1682.238281 1082.339844 1682.238281 L 989.289062 1682.238281 C 982.925781 1682.238281 977.761719 1677.070312 977.761719 1670.699219 L 977.761719 1577.539062 C 977.761719 1571.171875 982.925781 1566 989.289062 1566 Z M 1070.808594 1589.078125 L 1000.808594 1589.078125 L 1000.808594 1659.160156 L 1070.808594 1659.160156 Z M 1919.679688 1566 L 2012.710938 1566 C 2019.078125 1566 2024.238281 1571.171875 2024.238281 1577.539062 L 2024.238281 1670.699219 C 2024.238281 1677.070312 2019.078125 1682.238281 2012.710938 1682.238281 L 1919.679688 1682.238281 C 1913.320312 1682.238281 1908.160156 1677.070312 1908.160156 1670.699219 L 1908.160156 1577.539062 C 1908.160156 1571.171875 1913.320312 1566 1919.679688 1566 Z M 2001.191406 1589.078125 L 1931.210938 1589.078125 L 1931.210938 1659.160156 L 2001.191406 1659.160156 Z M 1687.089844 1566 L 1780.121094 1566 C 1786.480469 1566 1791.648438 1571.171875 1791.648438 1577.539062 L 1791.648438 1670.699219 C 1791.648438 1677.070312 1786.480469 1682.238281 1780.121094 1682.238281 L 1687.089844 1682.238281 C 1680.730469 1682.238281 1675.570312 1677.070312 1675.570312 1670.699219 L 1675.570312 1577.539062 C 1675.570312 1571.171875 1680.730469 1566 1687.089844 1566 Z M 1768.601562 1589.078125 L 1698.621094 1589.078125 L 1698.621094 1659.160156 L 1768.601562 1659.160156 Z M 1454.480469 1566 L 1547.511719 1566 C 1553.878906 1566 1559.039062 1571.171875 1559.039062 1577.539062 L 1559.039062 1670.699219 C 1559.039062 1677.070312 1553.878906 1682.238281 1547.511719 1682.238281 L 1454.480469 1682.238281 C 1448.121094 1682.238281 1442.960938 1677.070312 1442.960938 1670.699219 L 1442.960938 1577.539062 C 1442.960938 1571.171875 1448.121094 1566 1454.480469 1566 Z M 1535.988281 1589.078125 L 1466.011719 1589.078125 L 1466.011719 1659.160156 L 1535.988281 1659.160156 Z M 1221.890625 1566 L 1314.921875 1566 C 1321.28125 1566 1326.449219 1571.171875 1326.449219 1577.539062 L 1326.449219 1670.699219 C 1326.449219 1677.070312 1321.28125 1682.238281 1314.921875 1682.238281 L 1221.890625 1682.238281 C 1215.53125 1682.238281 1210.371094 1677.070312 1210.371094 1670.699219 L 1210.371094 1577.539062 C 1210.371094 1571.171875 1215.53125 1566 1221.890625 1566 Z M 1303.398438 1589.078125 L 1233.421875 1589.078125 L 1233.421875 1659.160156 L 1303.398438 1659.160156 Z M 989.289062 1351.660156 L 1082.339844 1351.660156 C 1088.699219 1351.660156 1093.859375 1356.820312 1093.859375 1363.199219 L 1093.859375 1456.371094 C 1093.859375 1462.738281 1088.699219 1467.910156 1082.339844 1467.910156 L 989.289062 1467.910156 C 982.925781 1467.910156 977.761719 1462.738281 977.761719 1456.371094 L 977.761719 1363.199219 C 977.761719 1356.820312 982.925781 1351.660156 989.289062 1351.660156 Z M 1070.808594 1374.738281 L 1000.808594 1374.738281 L 1000.808594 1444.828125 L 1070.808594 1444.828125 Z M 1919.679688 1351.660156 L 2012.710938 1351.660156 C 2019.078125 1351.660156 2024.238281 1356.820312 2024.238281 1363.199219 L 2024.238281 1456.371094 C 2024.238281 1462.738281 2019.078125 1467.910156 2012.710938 1467.910156 L 1919.679688 1467.910156 C 1913.320312 1467.910156 1908.160156 1462.738281 1908.160156 1456.371094 L 1908.160156 1363.199219 C 1908.160156 1356.820312 1913.320312 1351.660156 1919.679688 1351.660156 Z M 2001.191406 1374.738281 L 1931.210938 1374.738281 L 1931.210938 1444.828125 L 2001.191406 1444.828125 Z M 1687.089844 1351.660156 L 1780.121094 1351.660156 C 1786.480469 1351.660156 1791.648438 1356.820312 1791.648438 1363.199219 L 1791.648438 1456.371094 C 1791.648438 1462.738281 1786.480469 1467.910156 1780.121094 1467.910156 L 1687.089844 1467.910156 C 1680.730469 1467.910156 1675.570312 1462.738281 1675.570312 1456.371094 L 1675.570312 1363.199219 C 1675.570312 1356.820312 1680.730469 1351.660156 1687.089844 1351.660156 Z M 1768.601562 1374.738281 L 1698.621094 1374.738281 L 1698.621094 1444.828125 L 1768.601562 1444.828125 Z M 1454.480469 1351.660156 L 1547.511719 1351.660156 C 1553.878906 1351.660156 1559.039062 1356.820312 1559.039062 1363.199219 L 1559.039062 1456.371094 C 1559.039062 1462.738281 1553.878906 1467.910156 1547.511719 1467.910156 L 1454.480469 1467.910156 C 1448.121094 1467.910156 1442.960938 1462.738281 1442.960938 1456.371094 L 1442.960938 1363.199219 C 1442.960938 1356.820312 1448.121094 1351.660156 1454.480469 1351.660156 Z M 1535.988281 1374.738281 L 1466.011719 1374.738281 L 1466.011719 1444.828125 L 1535.988281 1444.828125 Z M 885.125 966.851562 L 1012.421875 966.851562 C 1018.78125 966.851562 1023.941406 972.011719 1023.941406 978.378906 L 1023.941406 1058.371094 C 1023.941406 1078.328125 1032.101562 1096.488281 1045.238281 1109.640625 L 1045.78125 1110.21875 C 1058.839844 1123.039062 1076.738281 1130.96875 1096.429688 1130.96875 L 1114.171875 1130.96875 C 1134.128906 1130.96875 1152.261719 1122.800781 1165.410156 1109.660156 L 1165.390625 1109.640625 C 1178.53125 1096.488281 1186.699219 1078.328125 1186.699219 1058.371094 L 1186.699219 978.378906 C 1186.699219 972.011719 1191.859375 966.851562 1198.21875 966.851562 L 1408.101562 966.851562 C 1414.460938 966.851562 1419.628906 972.011719 1419.628906 978.378906 L 1419.628906 1068.480469 C 1419.628906 1088.449219 1427.78125 1106.609375 1440.898438 1119.769531 L 1440.921875 1119.75 C 1454.058594 1132.898438 1472.179688 1141.070312 1492.109375 1141.070312 L 1509.851562 1141.070312 C 1529.789062 1141.070312 1547.929688 1132.898438 1561.070312 1119.75 C 1574.210938 1106.589844 1582.371094 1088.429688 1582.371094 1068.480469 L 1582.371094 978.378906 C 1582.371094 972.011719 1587.539062 966.851562 1593.898438 966.851562 L 1803.78125 966.851562 C 1810.140625 966.851562 1815.300781 972.011719 1815.300781 978.378906 L 1815.300781 1058.371094 C 1815.300781 1078.328125 1823.460938 1096.488281 1836.601562 1109.640625 L 1837.148438 1110.21875 C 1850.210938 1123.039062 1868.109375 1130.96875 1887.800781 1130.96875 L 1905.539062 1130.96875 C 1925.480469 1130.96875 1943.609375 1122.800781 1956.75 1109.640625 C 1969.890625 1096.488281 1978.058594 1078.328125 1978.058594 1058.371094 L 1978.058594 978.378906 C 1978.058594 972.011719 1983.21875 966.851562 1989.578125 966.851562 L 2116.871094 966.851562 C 2153.761719 966.851562 2187.308594 981.960938 2211.609375 1006.289062 C 2235.910156 1030.609375 2251 1064.199219 2251 1101.140625 L 2251 1982.960938 C 2251 2019.894531 2235.910156 2053.484375 2211.609375 2077.8125 C 2187.308594 2102.144531 2153.761719 2117.253906 2116.871094 2117.253906 L 885.125 2117.253906 C 848.238281 2117.253906 814.6875 2102.144531 790.390625 2077.8125 C 766.09375 2053.484375 751 2019.894531 751 1982.960938 L 751 1101.140625 C 751 1064.199219 766.09375 1030.609375 790.390625 1006.289062 C 814.6875 981.960938 848.238281 966.851562 885.125 966.851562 Z M 1000.890625 989.921875 L 885.125 989.921875 C 854.589844 989.921875 826.8125 1002.449219 806.683594 1022.601562 C 786.554688 1042.75 774.050781 1070.558594 774.050781 1101.140625 L 774.050781 1982.960938 C 774.050781 2013.535156 786.554688 2041.34375 806.683594 2061.5 C 826.8125 2081.65625 854.589844 2094.175781 885.125 2094.175781 L 2116.871094 2094.175781 C 2147.410156 2094.175781 2175.191406 2081.65625 2195.308594 2061.5 C 2215.441406 2041.34375 2227.949219 2013.535156 2227.949219 1982.960938 L 2227.949219 1101.140625 C 2227.949219 1070.558594 2215.441406 1042.75 2195.308594 1022.601562 C 2175.191406 1002.449219 2147.410156 989.921875 2116.871094 989.921875 L 2001.109375 989.921875 L 2001.109375 1058.371094 C 2001.109375 1084.691406 1990.351562 1108.628906 1973.050781 1125.960938 C 1955.738281 1143.289062 1931.828125 1154.050781 1905.539062 1154.050781 L 1887.800781 1154.050781 C 1861.871094 1154.050781 1838.269531 1143.550781 1820.988281 1126.589844 L 1820.308594 1125.960938 C 1803 1108.628906 1792.25 1084.691406 1792.25 1058.371094 L 1792.25 989.921875 L 1605.421875 989.921875 L 1605.421875 1068.480469 C 1605.421875 1094.800781 1594.671875 1118.738281 1577.359375 1136.058594 C 1560.058594 1153.390625 1536.140625 1164.148438 1509.851562 1164.148438 L 1492.109375 1164.148438 C 1465.820312 1164.148438 1441.929688 1153.390625 1424.621094 1136.058594 L 1424.640625 1136.039062 L 1424.621094 1136.019531 C 1407.320312 1118.691406 1396.578125 1094.769531 1396.578125 1068.480469 L 1396.578125 989.921875 L 1209.75 989.921875 L 1209.75 1058.371094 C 1209.75 1084.691406 1198.988281 1108.628906 1181.679688 1125.960938 L 1181.660156 1125.941406 L 1181.640625 1125.960938 C 1164.320312 1143.289062 1140.429688 1154.050781 1114.171875 1154.050781 L 1096.429688 1154.050781 C 1070.519531 1154.050781 1046.910156 1143.550781 1029.628906 1126.589844 L 1028.949219 1125.960938 C 1011.640625 1108.628906 1000.890625 1084.691406 1000.890625 1058.371094 Z M 1105.320312 882.75 C 1116.410156 882.75 1126.5 887.289062 1133.789062 894.589844 C 1141.078125 901.890625 1145.609375 911.988281 1145.609375 923.089844 L 1145.609375 1047.339844 C 1145.609375 1058.441406 1141.078125 1068.539062 1133.789062 1075.839844 C 1126.5 1083.140625 1116.410156 1087.679688 1105.320312 1087.679688 C 1094.230469 1087.679688 1084.148438 1083.140625 1076.859375 1075.839844 C 1069.558594 1068.539062 1065.03125 1058.441406 1065.03125 1047.339844 L 1065.03125 923.089844 C 1065.03125 911.988281 1069.558594 901.890625 1076.859375 894.589844 C 1084.148438 887.289062 1094.230469 882.75 1105.320312 882.75 Z M 1117.488281 910.898438 C 1114.371094 907.769531 1110.050781 905.828125 1105.320312 905.828125 C 1100.589844 905.828125 1096.269531 907.769531 1093.148438 910.898438 C 1090.03125 914.03125 1088.078125 918.351562 1088.078125 923.089844 L 1088.078125 1047.339844 C 1088.078125 1052.078125 1090.03125 1056.398438 1093.148438 1059.53125 C 1096.269531 1062.648438 1100.589844 1064.601562 1105.320312 1064.601562 C 1110.050781 1064.601562 1114.371094 1062.648438 1117.488281 1059.53125 C 1120.621094 1056.398438 1122.558594 1052.078125 1122.558594 1047.339844 L 1122.558594 923.089844 C 1122.558594 918.351562 1120.621094 914.03125 1117.488281 910.898438 Z M 1501 882.75 C 1512.089844 882.75 1522.171875 887.289062 1529.46875 894.589844 C 1536.761719 901.890625 1541.289062 911.988281 1541.289062 923.089844 L 1541.289062 1047.339844 C 1541.289062 1058.441406 1536.761719 1068.539062 1529.46875 1075.839844 C 1522.171875 1083.140625 1512.089844 1087.679688 1501 1087.679688 C 1489.910156 1087.679688 1479.820312 1083.140625 1472.53125 1075.839844 C 1465.238281 1068.539062 1460.710938 1058.441406 1460.710938 1047.339844 L 1460.710938 923.089844 C 1460.710938 911.988281 1465.238281 901.890625 1472.53125 894.589844 C 1479.820312 887.289062 1489.910156 882.75 1501 882.75 Z M 1513.171875 910.898438 C 1510.050781 907.769531 1505.730469 905.828125 1501 905.828125 C 1496.269531 905.828125 1491.949219 907.769531 1488.828125 910.898438 C 1485.699219 914.03125 1483.761719 918.351562 1483.761719 923.089844 L 1483.761719 1047.339844 C 1483.761719 1052.078125 1485.699219 1056.398438 1488.828125 1059.53125 C 1491.949219 1062.648438 1496.269531 1064.601562 1501 1064.601562 C 1505.730469 1064.601562 1510.050781 1062.648438 1513.171875 1059.53125 C 1516.289062 1056.398438 1518.238281 1052.078125 1518.238281 1047.339844 L 1518.238281 923.089844 C 1518.238281 918.351562 1516.289062 914.03125 1513.171875 910.898438 Z M 1896.679688 882.75 C 1907.769531 882.75 1917.859375 887.289062 1925.148438 894.589844 C 1932.441406 901.890625 1936.980469 911.988281 1936.980469 923.089844 L 1936.980469 1047.339844 C 1936.980469 1058.441406 1932.441406 1068.539062 1925.148438 1075.839844 C 1917.859375 1083.140625 1907.769531 1087.679688 1896.679688 1087.679688 C 1885.601562 1087.679688 1875.511719 1083.140625 1868.21875 1075.839844 C 1860.929688 1068.539062 1856.390625 1058.441406 1856.390625 1047.339844 L 1856.390625 923.089844 C 1856.390625 911.988281 1860.929688 901.890625 1868.21875 894.589844 C 1875.511719 887.289062 1885.601562 882.75 1896.679688 882.75 Z M 1908.859375 910.898438 C 1905.730469 907.769531 1901.410156 905.828125 1896.679688 905.828125 C 1891.949219 905.828125 1887.640625 907.769531 1884.511719 910.898438 C 1881.390625 914.03125 1879.441406 918.351562 1879.441406 923.089844 L 1879.441406 1047.339844 C 1879.441406 1052.078125 1881.390625 1056.398438 1884.511719 1059.53125 C 1887.640625 1062.648438 1891.949219 1064.601562 1896.679688 1064.601562 C 1901.410156 1064.601562 1905.730469 1062.648438 1908.859375 1059.53125 C 1911.980469 1056.398438 1913.929688 1052.078125 1913.929688 1047.339844 L 1913.929688 923.089844 C 1913.929688 918.351562 1911.980469 914.03125 1908.859375 910.898438 "/>
</svg>
