<?xml version="1.0" encoding="UTF-8"?>
<svg xmlns="http://www.w3.org/2000/svg" xmlns:xlink="http://www.w3.org/1999/xlink" width="3750" height="2501.25" viewBox="0 0 3750 2501.25">
<defs>
<linearGradient id="linear-pattern-0" gradientUnits="userSpaceOnUse" x1="0.34715" y1="0" x2="0.870926" y2="0" gradientTransform="matrix(-7357.64, -327.683, -327.683, 7357.64, 6358.07, 1405.52)">
<stop offset="0" stop-color="rgb(98.893738%, 93.260193%, 85.916138%)" stop-opacity="1"/>
<stop offset="0.03125" stop-color="rgb(98.867798%, 93.286133%, 86.045837%)" stop-opacity="1"/>
<stop offset="0.0625" stop-color="rgb(98.815918%, 93.339539%, 86.305237%)" stop-opacity="1"/>
<stop offset="0.09375" stop-color="rgb(98.764038%, 93.391418%, 86.566162%)" stop-opacity="1"/>
<stop offset="0.125" stop-color="rgb(98.712158%, 93.443298%, 86.827087%)" stop-opacity="1"/>
<stop offset="0.15625" stop-color="rgb(98.660278%, 93.495178%, 87.086487%)" stop-opacity="1"/>
<stop offset="0.1875" stop-color="rgb(98.608398%, 93.547058%, 87.347412%)" stop-opacity="1"/>
<stop offset="0.21875" stop-color="rgb(98.554993%, 93.598938%, 87.608337%)" stop-opacity="1"/>
<stop offset="0.25" stop-color="rgb(98.503113%, 93.650818%, 87.869263%)" stop-opacity="1"/>
<stop offset="0.28125" stop-color="rgb(98.451233%, 93.704224%, 88.128662%)" stop-opacity="1"/>
<stop offset="0.3125" stop-color="rgb(98.399353%, 93.756104%, 88.389587%)" stop-opacity="1"/>
<stop offset="0.34375" stop-color="rgb(98.347473%, 93.807983%, 88.650513%)" stop-opacity="1"/>
<stop offset="0.375" stop-color="rgb(98.295593%, 93.859863%, 88.909912%)" stop-opacity="1"/>
<stop offset="0.40625" stop-color="rgb(98.243713%, 93.911743%, 89.170837%)" stop-opacity="1"/>
<stop offset="0.4375" stop-color="rgb(98.190308%, 93.963623%, 89.431763%)" stop-opacity="1"/>
<stop offset="0.46875" stop-color="rgb(98.138428%, 94.015503%, 89.691162%)" stop-opacity="1"/>
<stop offset="0.5" stop-color="rgb(98.086548%, 94.068909%, 89.952087%)" stop-opacity="1"/>
<stop offset="0.53125" stop-color="rgb(98.072815%, 94.081116%, 90.019226%)" stop-opacity="1"/>
<stop offset="0.546875" stop-color="rgb(98.106384%, 94.047546%, 89.852905%)" stop-opacity="1"/>
<stop offset="0.5625" stop-color="rgb(98.147583%, 94.006348%, 89.64386%)" stop-opacity="1"/>
<stop offset="0.578125" stop-color="rgb(98.190308%, 93.963623%, 89.434814%)" stop-opacity="1"/>
<stop offset="0.59375" stop-color="rgb(98.231506%, 93.922424%, 89.225769%)" stop-opacity="1"/>
<stop offset="0.609375" stop-color="rgb(98.274231%, 93.881226%, 89.016724%)" stop-opacity="1"/>
<stop offset="0.625" stop-color="rgb(98.31543%, 93.838501%, 88.807678%)" stop-opacity="1"/>
<stop offset="0.640625" stop-color="rgb(98.356628%, 93.797302%, 88.598633%)" stop-opacity="1"/>
<stop offset="0.65625" stop-color="rgb(98.399353%, 93.754578%, 88.389587%)" stop-opacity="1"/>
<stop offset="0.671875" stop-color="rgb(98.440552%, 93.713379%, 88.180542%)" stop-opacity="1"/>
<stop offset="0.6875" stop-color="rgb(98.483276%, 93.67218%, 87.971497%)" stop-opacity="1"/>
<stop offset="0.703125" stop-color="rgb(98.524475%, 93.629456%, 87.762451%)" stop-opacity="1"/>
<stop offset="0.71875" stop-color="rgb(98.565674%, 93.588257%, 87.553406%)" stop-opacity="1"/>
<stop offset="0.734375" stop-color="rgb(98.608398%, 93.547058%, 87.34436%)" stop-opacity="1"/>
<stop offset="0.75" stop-color="rgb(98.649597%, 93.504333%, 87.135315%)" stop-opacity="1"/>
<stop offset="0.765625" stop-color="rgb(98.692322%, 93.463135%, 86.92627%)" stop-opacity="1"/>
<stop offset="0.78125" stop-color="rgb(98.733521%, 93.42041%, 86.717224%)" stop-opacity="1"/>
<stop offset="0.796875" stop-color="rgb(98.774719%, 93.379211%, 86.508179%)" stop-opacity="1"/>
<stop offset="0.8125" stop-color="rgb(98.817444%, 93.338013%, 86.299133%)" stop-opacity="1"/>
<stop offset="0.828125" stop-color="rgb(98.858643%, 93.295288%, 86.090088%)" stop-opacity="1"/>
<stop offset="0.84375" stop-color="rgb(98.901367%, 93.254089%, 85.881042%)" stop-opacity="1"/>
<stop offset="0.859375" stop-color="rgb(98.942566%, 93.211365%, 85.671997%)" stop-opacity="1"/>
<stop offset="0.875" stop-color="rgb(98.983765%, 93.170166%, 85.462952%)" stop-opacity="1"/>
<stop offset="0.890625" stop-color="rgb(99.026489%, 93.128967%, 85.253906%)" stop-opacity="1"/>
<stop offset="0.90625" stop-color="rgb(99.067688%, 93.086243%, 85.044861%)" stop-opacity="1"/>
<stop offset="0.921875" stop-color="rgb(99.108887%, 93.045044%, 84.835815%)" stop-opacity="1"/>
<stop offset="0.9375" stop-color="rgb(99.151611%, 93.002319%, 84.62677%)" stop-opacity="1"/>
<stop offset="0.953125" stop-color="rgb(99.19281%, 92.961121%, 84.417725%)" stop-opacity="1"/>
<stop offset="0.96875" stop-color="rgb(99.235535%, 92.919922%, 84.208679%)" stop-opacity="1"/>
<stop offset="0.984375" stop-color="rgb(99.276733%, 92.877197%, 83.999634%)" stop-opacity="1"/>
<stop offset="1" stop-color="rgb(99.317932%, 92.835999%, 83.790588%)" stop-opacity="1"/>
</linearGradient>
</defs>

<path fill-rule="nonzero" fill="rgb(19.993591%, 19.993591%, 19.993591%)" fill-opacity="1" d="M 2926.109375 959.871094 L 2926.109375 2009.246094 C 2926.109375 2080.054688 2858.621094 2137.058594 2774.800781 2137.058594 L 975.203125 2137.058594 C 891.378906 2137.058594 823.890625 2080.054688 823.890625 2009.246094 L 823.890625 959.871094 C 823.890625 889.058594 891.378906 832.058594 975.203125 832.058594 L 2774.800781 832.058594 C 2858.621094 832.058594 2926.109375 889.058594 2926.109375 959.871094 "/>
<path fill-rule="nonzero" fill="rgb(97.264099%, 97.264099%, 100%)" fill-opacity="1" d="M 2824.199219 1043.601562 L 2824.199219 1925.519531 C 2824.199219 1985.027344 2762.75 2032.933594 2686.429688 2032.933594 L 1063.570312 2032.933594 C 987.246094 2032.933594 925.804688 1985.027344 925.804688 1925.519531 L 925.804688 1043.601562 C 925.804688 984.089844 987.246094 936.179688 1063.570312 936.179688 L 2686.429688 936.179688 C 2762.75 936.179688 2824.199219 984.089844 2824.199219 1043.601562 "/>
<path fill-rule="nonzero" fill="rgb(100%, 100%, 100%)" fill-opacity="1" d="M 1903.75 883.609375 C 1903.75 891.238281 1900.71875 898.550781 1895.328125 903.941406 C 1889.941406 909.339844 1882.628906 912.359375 1875 912.359375 C 1867.378906 912.359375 1860.058594 909.339844 1854.671875 903.941406 C 1849.28125 898.550781 1846.25 891.238281 1846.25 883.609375 C 1846.25 875.988281 1849.28125 868.679688 1854.671875 863.28125 C 1860.058594 857.890625 1867.378906 854.859375 1875 854.859375 C 1882.628906 854.859375 1889.941406 857.890625 1895.328125 863.28125 C 1900.71875 868.679688 1903.75 875.988281 1903.75 883.609375 "/>
<path fill-rule="nonzero" fill="rgb(96.875%, 77.34375%, 37.646484%)" fill-opacity="1" d="M 1418.390625 1494.050781 L 1687.648438 1242.871094 C 1692.351562 1238.488281 1701.078125 1241.421875 1705.761719 1247.621094 C 1710.441406 1253.808594 1709.25 1260.851562 1704.539062 1265.238281 L 1435.289062 1516.421875 C 1430.589844 1520.808594 1421.859375 1517.871094 1417.179688 1511.675781 C 1412.5 1505.480469 1413.691406 1498.441406 1418.390625 1494.050781 "/>
<path fill-rule="nonzero" fill="rgb(33.325195%, 59.959412%, 100%)" fill-opacity="1" d="M 1363.570312 1929.253906 L 1361.210938 1712.007812 C 1360.890625 1682.316406 1393.601562 1659.019531 1433.980469 1659.769531 C 1474.359375 1660.523438 1506.671875 1685.03125 1507 1714.722656 L 1509.351562 1931.96875 C 1509.671875 1961.65625 1476.96875 1984.953125 1436.589844 1984.203125 C 1396.199219 1983.449219 1363.890625 1958.941406 1363.570312 1929.253906 "/>
<path fill-rule="nonzero" fill="rgb(100%, 44.309998%, 50.193787%)" fill-opacity="1" d="M 1660.5 1929.253906 L 1658.148438 1486.859375 C 1657.988281 1457.171875 1690.53125 1433.871094 1730.910156 1434.621094 C 1771.289062 1435.378906 1803.769531 1459.890625 1803.929688 1489.578125 L 1806.28125 1931.96875 C 1806.441406 1961.65625 1773.898438 1984.953125 1733.519531 1984.203125 C 1693.140625 1983.449219 1660.660156 1958.941406 1660.5 1929.253906 "/>
<path fill-rule="nonzero" fill="rgb(33.325195%, 59.959412%, 100%)" fill-opacity="1" d="M 1957.429688 1929.253906 L 1955.078125 1581.488281 C 1954.878906 1551.796875 1987.460938 1528.5 2027.839844 1529.253906 C 2068.21875 1530.003906 2100.660156 1554.511719 2100.859375 1584.203125 L 2103.210938 1931.96875 C 2103.410156 1961.65625 2070.828125 1984.953125 2030.449219 1984.203125 C 1990.070312 1983.449219 1957.628906 1958.941406 1957.429688 1929.253906 "/>
<path fill-rule="nonzero" fill="rgb(100%, 44.309998%, 50.193787%)" fill-opacity="1" d="M 2254.359375 1929.253906 L 2252.011719 1274.769531 C 2251.898438 1245.078125 2284.390625 1221.78125 2324.769531 1222.53125 C 2365.148438 1223.28125 2397.679688 1247.789062 2397.789062 1277.480469 L 2400.140625 1931.96875 C 2400.25 1961.65625 2367.761719 1984.953125 2327.378906 1984.203125 C 2287 1983.449219 2254.46875 1958.941406 2254.359375 1929.253906 "/>
<path fill-rule="nonzero" fill="rgb(33.325195%, 59.959412%, 100%)" fill-opacity="1" d="M 1390.878906 1488.988281 C 1390.878906 1500.421875 1395.558594 1511.375 1403.890625 1519.453125 C 1412.210938 1527.53125 1423.511719 1532.070312 1435.28125 1532.070312 C 1459.800781 1532.070312 1479.679688 1512.785156 1479.679688 1488.988281 C 1479.679688 1465.210938 1459.800781 1445.921875 1435.28125 1445.921875 C 1423.511719 1445.921875 1412.210938 1450.460938 1403.890625 1458.539062 C 1395.558594 1466.609375 1390.878906 1477.570312 1390.878906 1488.988281 "/>
<path fill-rule="nonzero" fill="rgb(96.875%, 77.34375%, 37.646484%)" fill-opacity="1" d="M 1742.910156 1227.738281 L 2019.898438 1343.238281 C 2025.828125 1345.710938 2028.851562 1353.351562 2026.511719 1360.75 C 2024.160156 1368.148438 2017.371094 1372.441406 2011.429688 1369.960938 L 1734.449219 1254.460938 C 1728.511719 1251.988281 1725.488281 1244.351562 1727.839844 1236.949219 C 1730.179688 1229.550781 1736.96875 1225.261719 1742.910156 1227.738281 "/>
<path fill-rule="nonzero" fill="rgb(100%, 44.309998%, 50.193787%)" fill-opacity="1" d="M 1687.820312 1244.679688 C 1687.820312 1256.101562 1692.488281 1267.058594 1700.820312 1275.128906 C 1709.148438 1283.210938 1720.441406 1287.75 1732.210938 1287.75 C 1756.730469 1287.75 1776.609375 1268.460938 1776.609375 1244.679688 C 1776.609375 1220.890625 1756.730469 1201.601562 1732.210938 1201.601562 C 1720.441406 1201.601562 1709.148438 1206.140625 1700.820312 1214.21875 C 1692.488281 1222.289062 1687.820312 1233.25 1687.820312 1244.679688 "/>
<path fill-rule="nonzero" fill="rgb(96.875%, 77.34375%, 37.646484%)" fill-opacity="1" d="M 2020.761719 1354.128906 L 2317.050781 1008.398438 C 2321.238281 1003.519531 2329.53125 1003.238281 2335.761719 1007.871094 C 2341.988281 1012.5 2343.730469 1020.238281 2339.550781 1025.121094 L 2043.261719 1370.851562 C 2039.070312 1375.730469 2030.78125 1376.011719 2024.550781 1371.378906 C 2018.320312 1366.75 2016.578125 1359.011719 2020.761719 1354.128906 "/>
<path fill-rule="nonzero" fill="rgb(33.325195%, 59.959412%, 100%)" fill-opacity="1" d="M 1984.75 1361.570312 C 1984.75 1372.988281 1989.429688 1383.949219 1997.75 1392.03125 C 2006.078125 1400.101562 2017.371094 1404.640625 2029.140625 1404.640625 C 2053.660156 1404.640625 2073.539062 1385.359375 2073.539062 1361.570312 C 2073.539062 1337.78125 2053.660156 1318.488281 2029.140625 1318.488281 C 2017.371094 1318.488281 2006.078125 1323.03125 1997.75 1331.109375 C 1989.429688 1339.191406 1984.75 1350.140625 1984.75 1361.570312 "/>
<path fill-rule="nonzero" fill="rgb(100%, 44.309998%, 50.193787%)" fill-opacity="1" d="M 2281.679688 1024.609375 C 2281.679688 1036.039062 2286.359375 1046.988281 2294.679688 1055.070312 C 2303.011719 1063.148438 2314.300781 1067.691406 2326.078125 1067.691406 C 2350.601562 1067.691406 2370.46875 1048.398438 2370.46875 1024.609375 C 2370.46875 1000.820312 2350.601562 981.539062 2326.078125 981.539062 C 2314.300781 981.539062 2303.011719 986.078125 2294.679688 994.160156 C 2286.359375 1002.230469 2281.679688 1013.191406 2281.679688 1024.609375 "/>
<path fill-rule="nonzero" fill="rgb(96.875%, 77.34375%, 37.646484%)" fill-opacity="1" d="M 2319.160156 542.820312 C 2319.160156 684.449219 2433.96875 799.261719 2575.601562 799.261719 C 2717.21875 799.261719 2832.03125 684.449219 2832.03125 542.820312 C 2832.03125 401.199219 2717.21875 286.390625 2575.601562 286.390625 C 2433.96875 286.390625 2319.160156 401.199219 2319.160156 542.820312 "/>
<path fill-rule="nonzero" fill="rgb(96.875%, 77.34375%, 37.646484%)" fill-opacity="1" d="M 2361.988281 542.820312 C 2361.988281 660.800781 2457.628906 756.429688 2575.601562 756.429688 C 2693.570312 756.429688 2789.199219 660.800781 2789.199219 542.820312 C 2789.199219 424.851562 2693.570312 329.21875 2575.601562 329.21875 C 2457.628906 329.21875 2361.988281 424.851562 2361.988281 542.820312 "/>
<path fill-rule="nonzero" fill="rgb(100%, 100%, 100%)" fill-opacity="1" d="M 2657.929688 586.21875 C 2657.929688 598.75 2654.671875 610.011719 2648.171875 620 C 2641.769531 629.988281 2632.339844 637.808594 2619.910156 643.460938 C 2612.519531 646.820312 2604.308594 649.179688 2595.300781 650.550781 C 2592.320312 651 2597.011719 678.539062 2591.601562 681.660156 C 2582.039062 687.179688 2567.078125 687.078125 2557.671875 681.648438 C 2553.171875 677.148438 2557.871094 650.910156 2554.550781 650.378906 C 2543.289062 648.578125 2533.46875 645.238281 2525.070312 640.359375 C 2515.648438 634.800781 2507.96875 627.398438 2502.03125 618.171875 C 2496.191406 608.839844 2493.269531 599.789062 2493.269531 591.03125 C 2493.269531 585.941406 2495.011719 581.609375 2498.5 578.03125 C 2502.078125 574.351562 2506.601562 572.511719 2512.070312 572.511719 C 2516.5 572.511719 2520.21875 573.929688 2523.230469 576.75 C 2526.339844 579.578125 2528.980469 583.769531 2531.148438 589.328125 C 2533.789062 595.929688 2536.609375 601.441406 2539.628906 605.871094 C 2542.738281 610.300781 2547.070312 613.96875 2552.628906 616.890625 C 2558.191406 619.71875 2565.488281 621.128906 2574.539062 621.128906 C 2586.96875 621.128906 2597.058594 618.261719 2604.78125 612.511719 C 2612.601562 606.671875 2616.511719 599.421875 2616.511719 590.75 C 2616.511719 583.871094 2614.390625 578.308594 2610.148438 574.070312 C 2606.011719 569.730469 2600.589844 566.441406 2593.898438 564.179688 C 2587.300781 561.910156 2578.449219 559.511719 2567.328125 556.96875 C 2552.441406 553.480469 2539.960938 549.429688 2529.878906 544.808594 C 2519.890625 540.101562 2511.929688 533.738281 2505.988281 525.730469 C 2500.148438 517.628906 2497.230469 507.589844 2497.230469 495.628906 C 2497.230469 484.230469 2500.339844 474.101562 2506.558594 465.238281 C 2512.769531 456.378906 2523.359375 448.320312 2531.859375 444.039062 C 2540.351562 439.761719 2551.648438 438.78125 2555.238281 438.398438 C 2555.949219 438.320312 2555.449219 413.988281 2556.449219 407.039062 C 2558.46875 395.878906 2594.878906 398.78125 2593.589844 408.878906 C 2592.769531 415.351562 2593.289062 437.789062 2594.480469 438.671875 C 2600.019531 440.128906 2603.851562 441 2608.03125 442.488281 C 2617.359375 445.601562 2625.089844 449.789062 2631.210938 455.070312 C 2637.339844 460.25 2641.808594 465.710938 2644.640625 471.460938 C 2647.46875 477.210938 2648.878906 482.808594 2648.878906 488.28125 C 2648.878906 493.269531 2647.089844 497.800781 2643.511719 501.851562 C 2640.019531 505.800781 2635.640625 507.78125 2630.359375 507.78125 C 2625.558594 507.78125 2621.878906 506.609375 2619.339844 504.25 C 2616.890625 501.800781 2614.210938 497.839844 2611.28125 492.378906 C 2607.519531 484.558594 2602.988281 478.480469 2597.71875 474.148438 C 2592.441406 469.71875 2583.960938 467.5 2572.28125 467.5 C 2561.441406 467.5 2552.679688 469.910156 2545.988281 474.710938 C 2539.390625 479.421875 2536.089844 485.121094 2536.089844 491.808594 C 2536.089844 495.960938 2537.230469 499.539062 2539.488281 502.550781 C 2541.75 505.570312 2544.859375 508.160156 2548.808594 510.328125 C 2552.769531 512.488281 2556.78125 514.191406 2560.828125 515.421875 C 2564.878906 516.640625 2571.570312 518.429688 2580.898438 520.789062 C 2592.578125 523.519531 2603.128906 526.53125 2612.558594 529.828125 C 2622.070312 533.128906 2630.128906 537.128906 2636.71875 541.839844 C 2643.410156 546.558594 2648.601562 552.539062 2652.269531 559.789062 C 2656.039062 566.960938 2657.929688 575.769531 2657.929688 586.21875 "/>
<path fill-rule="nonzero" fill="rgb(96.875%, 77.34375%, 37.646484%)" fill-opacity="1" d="M 2629.769531 1006.261719 C 2629.769531 1135.339844 2734.410156 1239.980469 2863.488281 1239.980469 C 2992.570312 1239.980469 3097.210938 1135.339844 3097.210938 1006.261719 C 3097.210938 877.171875 2992.570312 772.53125 2863.488281 772.53125 C 2734.410156 772.53125 2629.769531 877.171875 2629.769531 1006.261719 "/>
<path fill-rule="nonzero" fill="rgb(96.875%, 77.34375%, 37.646484%)" fill-opacity="1" d="M 2668.800781 1006.261719 C 2668.800781 1113.78125 2755.96875 1200.949219 2863.488281 1200.949219 C 2971.011719 1200.949219 3058.179688 1113.78125 3058.179688 1006.261719 C 3058.179688 898.730469 2971.011719 811.570312 2863.488281 811.570312 C 2755.96875 811.570312 2668.800781 898.730469 2668.800781 1006.261719 "/>
<path fill-rule="nonzero" fill="rgb(100%, 100%, 100%)" fill-opacity="1" d="M 2938.53125 1045.808594 C 2938.53125 1057.230469 2935.558594 1067.5 2929.640625 1076.601562 C 2923.800781 1085.699219 2915.210938 1092.828125 2903.871094 1097.980469 C 2897.140625 1101.039062 2889.660156 1103.191406 2881.449219 1104.441406 C 2878.730469 1104.851562 2883.011719 1129.949219 2878.078125 1132.789062 C 2869.359375 1137.828125 2855.730469 1137.738281 2847.148438 1132.789062 C 2843.050781 1128.679688 2847.328125 1104.761719 2844.308594 1104.28125 C 2834.050781 1102.640625 2825.089844 1099.601562 2817.441406 1095.148438 C 2808.851562 1090.078125 2801.851562 1083.339844 2796.441406 1074.921875 C 2791.121094 1066.421875 2788.449219 1058.179688 2788.449219 1050.191406 C 2788.449219 1045.550781 2790.039062 1041.601562 2793.21875 1038.339844 C 2796.480469 1034.988281 2800.609375 1033.320312 2805.589844 1033.320312 C 2809.621094 1033.320312 2813.011719 1034.609375 2815.761719 1037.179688 C 2818.601562 1039.761719 2821 1043.578125 2822.980469 1048.648438 C 2825.378906 1054.660156 2827.960938 1059.679688 2830.710938 1063.71875 C 2833.539062 1067.75 2837.488281 1071.101562 2842.558594 1073.769531 C 2847.621094 1076.339844 2854.28125 1077.628906 2862.519531 1077.628906 C 2873.859375 1077.628906 2883.050781 1075.011719 2890.089844 1069.769531 C 2897.21875 1064.449219 2900.78125 1057.839844 2900.78125 1049.929688 C 2900.78125 1043.671875 2898.851562 1038.601562 2894.988281 1034.730469 C 2891.210938 1030.78125 2886.269531 1027.78125 2880.171875 1025.71875 C 2874.160156 1023.660156 2866.089844 1021.46875 2855.949219 1019.148438 C 2842.390625 1015.96875 2831.011719 1012.28125 2821.820312 1008.070312 C 2812.710938 1003.769531 2805.460938 997.980469 2800.050781 990.679688 C 2794.71875 983.289062 2792.058594 974.148438 2792.058594 963.238281 C 2792.058594 952.851562 2794.890625 943.621094 2800.558594 935.539062 C 2806.230469 927.46875 2815.878906 920.128906 2823.621094 916.21875 C 2831.359375 912.320312 2841.671875 911.429688 2844.941406 911.078125 C 2845.578125 911.011719 2845.128906 888.828125 2846.039062 882.488281 C 2847.878906 872.320312 2881.070312 874.96875 2879.890625 884.179688 C 2879.140625 890.070312 2879.621094 910.53125 2880.699219 911.320312 C 2885.75 912.648438 2889.238281 913.449219 2893.050781 914.800781 C 2901.558594 917.640625 2908.601562 921.460938 2914.179688 926.269531 C 2919.761719 930.988281 2923.839844 935.96875 2926.421875 941.210938 C 2928.988281 946.449219 2930.28125 951.558594 2930.28125 956.539062 C 2930.28125 961.089844 2928.648438 965.210938 2925.390625 968.910156 C 2922.210938 972.511719 2918.21875 974.320312 2913.410156 974.320312 C 2909.03125 974.320312 2905.679688 973.238281 2903.359375 971.101562 C 2901.128906 968.859375 2898.679688 965.261719 2896.019531 960.28125 C 2892.578125 953.148438 2888.460938 947.609375 2883.648438 943.660156 C 2878.839844 939.621094 2871.109375 937.609375 2860.460938 937.609375 C 2850.589844 937.609375 2842.601562 939.789062 2836.5 944.171875 C 2830.488281 948.46875 2827.488281 953.660156 2827.488281 959.761719 C 2827.488281 963.539062 2828.519531 966.800781 2830.578125 969.550781 C 2832.640625 972.300781 2835.46875 974.660156 2839.078125 976.640625 C 2842.691406 978.609375 2846.339844 980.160156 2850.03125 981.269531 C 2853.71875 982.390625 2859.820312 984.019531 2868.320312 986.171875 C 2878.96875 988.660156 2888.589844 991.410156 2897.179688 994.410156 C 2905.851562 997.421875 2913.191406 1001.070312 2919.199219 1005.359375 C 2925.300781 1009.660156 2930.019531 1015.109375 2933.371094 1021.71875 C 2936.808594 1028.25 2938.53125 1036.28125 2938.53125 1045.808594 "/>
<path fill-rule="nonzero" fill="rgb(96.875%, 77.34375%, 37.646484%)" fill-opacity="1" d="M 2901.519531 571.019531 C 2901.519531 684.578125 2993.578125 776.640625 3107.140625 776.640625 C 3220.699219 776.640625 3312.761719 684.578125 3312.761719 571.019531 C 3312.761719 457.460938 3220.699219 365.398438 3107.140625 365.398438 C 2993.578125 365.398438 2901.519531 457.460938 2901.519531 571.019531 "/>
<path fill-rule="nonzero" fill="rgb(96.875%, 77.34375%, 37.646484%)" fill-opacity="1" d="M 2935.859375 571.019531 C 2935.859375 665.621094 3012.550781 742.300781 3107.140625 742.300781 C 3201.738281 742.300781 3278.421875 665.621094 3278.421875 571.019531 C 3278.421875 476.429688 3201.738281 399.738281 3107.140625 399.738281 C 3012.550781 399.738281 2935.859375 476.429688 2935.859375 571.019531 "/>
<path fill-rule="nonzero" fill="rgb(100%, 100%, 100%)" fill-opacity="1" d="M 3173.160156 605.820312 C 3173.160156 615.871094 3170.550781 624.898438 3165.339844 632.910156 C 3160.199219 640.910156 3152.640625 647.179688 3142.671875 651.71875 C 3136.75 654.410156 3130.171875 656.300781 3122.941406 657.398438 C 3120.550781 657.761719 3124.308594 679.839844 3119.980469 682.339844 C 3112.308594 686.769531 3100.320312 686.691406 3092.769531 682.339844 C 3089.160156 678.730469 3092.929688 657.679688 3090.269531 657.261719 C 3081.238281 655.820312 3073.359375 653.140625 3066.628906 649.230469 C 3059.070312 644.769531 3052.921875 638.839844 3048.160156 631.429688 C 3043.46875 623.949219 3041.128906 616.699219 3041.128906 609.671875 C 3041.128906 605.589844 3042.53125 602.121094 3045.320312 599.25 C 3048.191406 596.300781 3051.820312 594.828125 3056.199219 594.828125 C 3059.75 594.828125 3062.738281 595.960938 3065.160156 598.230469 C 3067.648438 600.488281 3069.761719 603.859375 3071.5 608.308594 C 3073.621094 613.601562 3075.878906 618.019531 3078.300781 621.570312 C 3080.789062 625.121094 3084.269531 628.070312 3088.730469 630.410156 C 3093.191406 632.679688 3099.039062 633.808594 3106.289062 633.808594 C 3116.269531 633.808594 3124.351562 631.511719 3130.550781 626.898438 C 3136.820312 622.21875 3139.949219 616.398438 3139.949219 609.449219 C 3139.949219 603.929688 3138.25 599.46875 3134.851562 596.070312 C 3131.53125 592.601562 3127.179688 589.949219 3121.820312 588.140625 C 3116.53125 586.328125 3109.429688 584.398438 3100.511719 582.359375 C 3088.578125 579.570312 3078.570312 576.320312 3070.480469 572.621094 C 3062.46875 568.839844 3056.089844 563.738281 3051.328125 557.320312 C 3046.640625 550.820312 3044.300781 542.769531 3044.300781 533.179688 C 3044.300781 524.039062 3046.800781 515.910156 3051.78125 508.808594 C 3056.769531 501.710938 3065.261719 495.25 3072.070312 491.808594 C 3078.878906 488.378906 3087.949219 487.601562 3090.820312 487.289062 C 3091.390625 487.230469 3090.988281 467.710938 3091.789062 462.140625 C 3093.410156 453.191406 3122.609375 455.519531 3121.570312 463.621094 C 3120.910156 468.808594 3121.328125 486.800781 3122.289062 487.5 C 3126.730469 488.671875 3129.800781 489.371094 3133.148438 490.570312 C 3140.628906 493.058594 3146.828125 496.421875 3151.738281 500.648438 C 3156.648438 504.808594 3160.238281 509.191406 3162.5 513.800781 C 3164.769531 518.410156 3165.898438 522.898438 3165.898438 527.28125 C 3165.898438 531.289062 3164.46875 534.910156 3161.601562 538.160156 C 3158.800781 541.339844 3155.289062 542.921875 3151.058594 542.921875 C 3147.210938 542.921875 3144.261719 541.980469 3142.21875 540.089844 C 3140.25 538.128906 3138.101562 534.949219 3135.761719 530.570312 C 3132.738281 524.300781 3129.109375 519.429688 3124.878906 515.949219 C 3120.648438 512.398438 3113.851562 510.621094 3104.480469 510.621094 C 3095.789062 510.621094 3088.769531 512.550781 3083.398438 516.398438 C 3078.109375 520.179688 3075.46875 524.75 3075.46875 530.121094 C 3075.46875 533.441406 3076.378906 536.308594 3078.191406 538.730469 C 3080 541.148438 3082.488281 543.230469 3085.671875 544.960938 C 3088.839844 546.699219 3092.050781 548.058594 3095.300781 549.039062 C 3098.550781 550.03125 3103.910156 551.460938 3111.390625 553.351562 C 3120.761719 555.539062 3129.21875 557.960938 3136.78125 560.601562 C 3144.410156 563.25 3150.871094 566.460938 3156.160156 570.238281 C 3161.519531 574.011719 3165.679688 578.808594 3168.621094 584.628906 C 3171.648438 590.371094 3173.160156 597.429688 3173.160156 605.820312 "/>
<path fill-rule="nonzero" fill="rgb(100%, 100%, 100%)" fill-opacity="1" d="M 2779.621094 2007.910156 C 2779.621094 2040.929688 2780.921875 2133.632812 2780.921875 2133.632812 C 2780.921875 2179.8125 2956.261719 2177.765625 2956.261719 2137.128906 C 2956.261719 2137.128906 2957.148438 2075.824219 2957.148438 1998.777344 C 2957.148438 1979.078125 2948.078125 1969.566406 2937.539062 1969.679688 C 2909.601562 1969.984375 2828.171875 1968.730469 2800.25 1968.730469 C 2790.308594 1968.730469 2779.621094 1970.722656 2779.621094 1992.902344 L 2779.621094 2007.910156 "/>
<path fill-rule="nonzero" fill="rgb(56.834412%, 43.530273%, 43.530273%)" fill-opacity="1" d="M 2781.828125 1979.964844 C 2781.828125 2018.1875 2951.359375 2016.492188 2951.359375 1982.855469 C 2951.359375 1982.855469 2951.128906 2045.726562 2951.128906 1981.953125 C 2950.960938 1948.230469 2783.019531 1948.824219 2781.839844 1980.640625 C 2781.839844 2019.46875 2781.839844 1941.136719 2781.828125 1979.964844 "/>
<path fill-rule="nonzero" fill="rgb(44.309998%, 76.951599%, 49.414062%)" fill-opacity="1" d="M 2791.101562 1938.585938 C 2821.238281 1963.980469 2883.101562 1967.699219 2905.429688 1968.683594 C 2935.988281 1970.027344 2970.558594 1955.71875 2976.238281 1929.316406 C 2988.75 1871.140625 2937.601562 1842.621094 2869.648438 1786.101562 C 2831.269531 1754.171875 2808.238281 1738.238281 2791.28125 1704.570312 C 2767.238281 1656.859375 2797.101562 1575.996094 2764.53125 1546.539062 C 2731.960938 1517.085938 2693.128906 1522.59375 2664.859375 1540.167969 C 2643.371094 1553.523438 2633.21875 1581.105469 2635.679688 1610.230469 C 2638.140625 1639.355469 2671.710938 1676.328125 2682.019531 1699.335938 C 2722.359375 1789.359375 2724.078125 1882.105469 2791.101562 1938.585938 "/>
<path fill-rule="nonzero" fill="rgb(100%, 100%, 100%)" fill-opacity="1" d="M 2720.25 1581.46875 C 2720.191406 1581.722656 2720.160156 1581.980469 2720.171875 1582.238281 C 2721.460938 1649.105469 2722.601562 1716.3125 2747.898438 1765.917969 C 2773.210938 1815.523438 2821.96875 1846.34375 2844.710938 1877.507812 C 2867.449219 1908.671875 2865.789062 1941.121094 2864.078125 1974.585938 C 2864 1975.628906 2864.5 1976.628906 2865.371094 1977.203125 C 2866.238281 1977.777344 2867.351562 1977.835938 2868.28125 1977.351562 C 2869.199219 1976.871094 2869.800781 1975.925781 2869.828125 1974.878906 C 2871.539062 1941.414062 2873.300781 1906.933594 2849.359375 1874.117188 C 2825.421875 1841.300781 2777.398438 1811.082031 2753.03125 1763.304688 C 2728.648438 1715.523438 2727.210938 1648.996094 2725.921875 1582.128906 C 2725.921875 1580.671875 2724.820312 1579.453125 2723.378906 1579.285156 C 2721.929688 1579.117188 2720.589844 1580.054688 2720.25 1581.46875 "/>
<path fill-rule="nonzero" fill="rgb(44.309998%, 76.951599%, 49.414062%)" fill-opacity="1" d="M 2859.601562 1776.390625 C 2866.558594 1824.210938 2828.980469 1898.539062 2848.210938 1920.855469 C 2874.539062 1967.742188 2954.089844 1985.839844 2988.25 1920.046875 C 3020.851562 1857.269531 3029.140625 1822.503906 3003.808594 1705.601562 C 2990.378906 1643.613281 2964.5 1634.433594 3007.980469 1565.003906 C 3029.609375 1530.445312 3053.171875 1480.230469 3053.910156 1452.480469 C 3054.660156 1414.828125 3023.808594 1372.039062 2987.921875 1359.769531 C 2953.488281 1348 2913.261719 1357.949219 2883.410156 1391.320312 C 2853.570312 1424.699219 2840.488281 1450.398438 2830.070312 1500.710938 C 2799.421875 1648.683594 2852.308594 1726.285156 2859.601562 1776.390625 "/>
<path fill-rule="nonzero" fill="rgb(100%, 100%, 100%)" fill-opacity="1" d="M 2960.929688 1465.089844 C 2960.75 1465.28125 2960.589844 1465.488281 2960.46875 1465.710938 C 2928.148438 1524.269531 2895.539062 1583.035156 2892.648438 1638.652344 C 2889.761719 1694.265625 2916.511719 1745.210938 2918.53125 1787.804688 C 2920.550781 1830.398438 2898.46875 1866.539062 2885.160156 1896.871094 C 2871.851562 1927.203125 2867.949219 1950.921875 2864.109375 1974.265625 C 2863.941406 1975.285156 2864.320312 1976.324219 2865.121094 1976.984375 C 2865.910156 1977.644531 2867.011719 1977.824219 2867.96875 1977.453125 C 2868.941406 1977.085938 2869.640625 1976.222656 2869.789062 1975.199219 C 2873.628906 1951.855469 2877.398438 1928.882812 2890.429688 1899.183594 C 2903.46875 1869.480469 2926.398438 1832.25 2924.28125 1787.53125 C 2922.160156 1742.816406 2895.609375 1692.511719 2898.390625 1638.949219 C 2901.171875 1585.382812 2933.191406 1527.046875 2965.511719 1468.488281 C 2966.230469 1467.230469 2965.890625 1465.628906 2964.730469 1464.761719 C 2963.558594 1463.890625 2961.929688 1464.03125 2960.929688 1465.089844 "/>
<path fill-rule="nonzero" fill="rgb(44.309998%, 76.951599%, 49.414062%)" fill-opacity="1" d="M 3138.300781 1769.941406 C 3149.308594 1751.203125 3158.820312 1726.320312 3154.5 1706.796875 C 3148.578125 1680.074219 3105.089844 1652 3074.160156 1657.488281 C 3021.71875 1666.789062 3008.171875 1710.96875 2975.050781 1782.789062 C 2956.339844 1823.359375 2942.761719 1841.085938 2936.511719 1847.78125 C 2923.179688 1862.050781 2889.351562 1886.425781 2879.730469 1902.046875 C 2870.109375 1917.671875 2873.828125 1945.40625 2884.71875 1957.648438 C 2895.601562 1969.890625 2932.269531 1969.132812 2949.25 1961.816406 C 2966.238281 1954.5 3017.699219 1882.140625 3035.199219 1867.902344 C 3103.671875 1812.179688 3114.289062 1810.816406 3138.300781 1769.941406 "/>
<path fill-rule="nonzero" fill="rgb(100%, 100%, 100%)" fill-opacity="1" d="M 3104.839844 1726.839844 C 3104.191406 1726.808594 3103.550781 1727 3103.019531 1727.378906 C 3075.351562 1746.726562 3047.320312 1766.3125 3023.109375 1799.347656 C 2998.898438 1832.382812 2978.710938 1878.371094 2959.980469 1905.070312 C 2941.238281 1931.765625 2924.019531 1939.730469 2908.21875 1947.984375 C 2892.421875 1956.242188 2878.921875 1964.269531 2865.480469 1972.261719 C 2864.578125 1972.777344 2864.019531 1973.738281 2864.03125 1974.78125 C 2864.03125 1975.824219 2864.601562 1976.777344 2865.511719 1977.28125 C 2866.429688 1977.785156 2867.539062 1977.757812 2868.421875 1977.203125 C 2881.859375 1969.214844 2895.25 1961.257812 2910.878906 1953.085938 C 2926.519531 1944.914062 2945.289062 1936.003906 2964.679688 1908.375 C 2984.078125 1880.742188 3004.148438 1834.949219 3027.75 1802.746094 C 3051.351562 1770.546875 3078.648438 1751.4375 3106.320312 1732.09375 C 3107.351562 1731.398438 3107.808594 1730.121094 3107.46875 1728.929688 C 3107.140625 1727.738281 3106.070312 1726.894531 3104.839844 1726.839844 "/>
<path fill-rule="nonzero" fill="rgb(96.875%, 77.34375%, 37.646484%)" fill-opacity="1" d="M 661.257812 1707.988281 L 1087.378906 1707.988281 C 1098.589844 1707.988281 1107.609375 1714.984375 1107.609375 1723.671875 C 1107.609375 1723.671875 998.640625 1887.921875 1000.96875 1976.601562 C 1003.039062 2055.527344 745.476562 2060.402344 747.675781 1976.601562 C 749.871094 1892.800781 641.027344 1723.671875 641.027344 1723.671875 C 641.027344 1723.671875 650.050781 1707.988281 661.257812 1707.988281 "/>
<path fill-rule="nonzero" fill="rgb(96.875%, 77.34375%, 37.646484%)" fill-opacity="1" d="M 1141.519531 1618.855469 C 1141.519531 1687.613281 1113.371094 1753.554688 1063.261719 1802.171875 C 1013.148438 1850.789062 945.183594 1878.101562 874.316406 1878.101562 C 726.742188 1878.101562 607.113281 1762.03125 607.113281 1618.855469 C 607.113281 1475.679688 726.746094 1359.609375 874.316406 1359.609375 C 945.183594 1359.609375 1013.148438 1386.921875 1063.261719 1435.539062 C 1113.371094 1484.160156 1141.519531 1550.101562 1141.519531 1618.855469 "/>
<path fill-rule="nonzero" fill="rgb(98.4375%, 92.96875%, 76.951599%)" fill-opacity="1" d="M 1291.308594 1384.210938 C 1288.398438 1384.078125 1285.5 1384.640625 1282.839844 1385.839844 C 1201.890625 1421.050781 1265.328125 1394.449219 1184.609375 1429.558594 C 1178.441406 1432.140625 1174.140625 1437.839844 1173.351562 1444.480469 C 1172.558594 1451.121094 1175.410156 1457.660156 1180.808594 1461.609375 C 1186.199219 1465.558594 1193.300781 1466.300781 1199.390625 1463.550781 C 1280.339844 1428.328125 1216.910156 1454.941406 1297.621094 1419.820312 C 1305.621094 1416.480469 1310.230469 1408.03125 1308.71875 1399.488281 C 1307.210938 1390.949219 1299.980469 1384.609375 1291.308594 1384.210938 "/>
<path fill-rule="nonzero" fill="rgb(98.4375%, 92.96875%, 76.951599%)" fill-opacity="1" d="M 457.628906 1376.570312 C 448.71875 1376.351562 440.914062 1382.511719 439.054688 1391.230469 C 437.191406 1399.941406 441.800781 1408.75 450.023438 1412.191406 C 530.738281 1447.300781 467.304688 1420.699219 548.253906 1455.910156 C 554.34375 1458.671875 561.449219 1457.929688 566.84375 1453.980469 C 572.234375 1450.03125 575.085938 1443.480469 574.296875 1436.851562 C 573.507812 1430.210938 569.207031 1424.511719 563.039062 1421.929688 C 482.320312 1386.820312 545.757812 1413.421875 464.808594 1378.210938 C 462.550781 1377.191406 460.105469 1376.628906 457.628906 1376.570312 "/>
<path fill-rule="nonzero" fill="rgb(98.4375%, 92.96875%, 76.951599%)" fill-opacity="1" d="M 1066.789062 1138.058594 C 1059.609375 1137.730469 1052.941406 1141.71875 1049.839844 1148.199219 C 1012.078125 1224.289062 1040.800781 1164.441406 1002.929688 1240.75 C 999.996094 1246.480469 1000.371094 1253.351562 1003.921875 1258.730469 C 1007.460938 1264.109375 1013.621094 1267.171875 1020.050781 1266.738281 C 1026.480469 1266.308594 1032.179688 1262.449219 1034.96875 1256.640625 C 1072.730469 1180.558594 1044.011719 1240.398438 1081.878906 1164.101562 C 1084.660156 1158.679688 1084.5 1152.21875 1081.441406 1146.949219 C 1078.390625 1141.691406 1072.871094 1138.328125 1066.789062 1138.058594 "/>
<path fill-rule="nonzero" fill="rgb(98.4375%, 92.96875%, 76.951599%)" fill-opacity="1" d="M 670.789062 1155.199219 C 665.019531 1155.058594 659.597656 1157.96875 656.53125 1162.859375 C 653.464844 1167.761719 653.199219 1173.898438 655.839844 1179.039062 C 690.488281 1248.859375 664.207031 1194.101562 698.757812 1263.71875 C 701.320312 1269.019531 706.53125 1272.53125 712.402344 1272.921875 C 718.273438 1273.308594 723.902344 1270.519531 727.144531 1265.609375 C 730.386719 1260.691406 730.738281 1254.421875 728.070312 1249.171875 C 693.421875 1179.351562 719.699219 1234.109375 685.152344 1164.488281 C 682.492188 1158.941406 676.945312 1155.351562 670.789062 1155.199219 "/>
<path fill-rule="nonzero" fill="rgb(33.325195%, 59.959412%, 100%)" fill-opacity="1" d="M 739.433594 2020.917969 C 739.433594 2110.691406 798.824219 2169.078125 872.089844 2169.078125 C 945.359375 2169.078125 1004.75 2110.691406 1004.75 2020.917969 C 1004.75 1931.140625 945.359375 1942.460938 872.089844 1942.460938 C 798.824219 1942.460938 739.433594 1931.140625 739.433594 2020.917969 "/>
<path fill-rule="nonzero" fill="rgb(33.325195%, 59.959412%, 100%)" fill-opacity="1" d="M 758.71875 2004.851562 L 988.933594 2004.851562 C 1008.191406 2004.851562 1023.699219 2019.003906 1023.699219 2036.585938 L 1023.699219 2040.324219 C 1023.699219 2057.90625 1008.191406 2072.058594 988.933594 2072.058594 L 758.71875 2072.058594 C 739.457031 2072.058594 723.953125 2057.90625 723.953125 2040.324219 L 723.953125 2036.585938 C 723.953125 2019.003906 739.457031 2004.851562 758.71875 2004.851562 "/>
<path fill-rule="nonzero" fill="rgb(33.325195%, 59.959412%, 100%)" fill-opacity="1" d="M 758.71875 1943.023438 L 988.933594 1943.023438 C 1008.191406 1943.023438 1023.699219 1957.179688 1023.699219 1974.761719 L 1023.699219 1978.496094 C 1023.699219 1996.078125 1008.191406 2010.230469 988.933594 2010.230469 L 758.71875 2010.230469 C 739.457031 2010.230469 723.953125 1996.078125 723.953125 1978.496094 L 723.953125 1974.761719 C 723.953125 1957.179688 739.457031 1943.023438 758.71875 1943.023438 "/>
<path fill-rule="nonzero" fill="rgb(33.325195%, 59.959412%, 100%)" fill-opacity="1" d="M 401.273438 759.648438 C 445.5625 759.460938 438.371094 759.460938 481.890625 759.5 C 488.574219 759.511719 485.179688 942.238281 485.179688 942.238281 L 657.371094 942.339844 L 656.132812 759.621094 C 656.132812 759.621094 702.734375 759.648438 739.054688 759.5 C 757.046875 759.429688 753.105469 740.210938 753.105469 740.210938 C 737.324219 718.078125 607.558594 538.558594 571.800781 500.589844 C 568.066406 496.621094 562.34375 499.609375 561.074219 498.941406 C 546.480469 505.089844 397.511719 723.730469 387.179688 740.699219 C 387.179688 740.699219 382.976562 759.71875 401.273438 759.648438 "/>
<path fill-rule="nonzero" fill="rgb(100%, 44.309998%, 50.193787%)" fill-opacity="1" d="M 948.484375 491.28125 C 982.277344 491.140625 976.789062 491.140625 1010 491.171875 C 1015.089844 491.179688 1012.5 630.589844 1012.5 630.589844 L 1143.878906 630.671875 L 1142.929688 491.261719 C 1142.929688 491.261719 1178.488281 491.289062 1206.199219 491.171875 C 1219.929688 491.109375 1216.921875 476.449219 1216.921875 476.449219 C 1204.878906 459.570312 1105.871094 322.609375 1078.589844 293.628906 C 1075.738281 290.601562 1071.378906 292.890625 1070.410156 292.371094 C 1059.269531 297.070312 945.617188 463.878906 937.734375 476.820312 C 937.734375 476.820312 934.527344 491.339844 948.484375 491.28125 "/>
</svg>
