<?xml version="1.0" encoding="UTF-8"?>
<svg xmlns="http://www.w3.org/2000/svg" xmlns:xlink="http://www.w3.org/1999/xlink" width="2532" height="3173" viewBox="0 0 2532 3173">
<path fill-rule="nonzero" fill="rgb(0%, 0%, 0%)" fill-opacity="1" d="M 1580.839844 2998.78125 C 1665 2895.265625 1844.539062 2674.253906 1979.820312 2507.644531 C 2228.519531 2201.351562 2366.660156 2004.480469 2366.660156 1956.359375 C 2366.660156 1938.429688 2348.609375 1931.578125 2309.949219 1934.859375 C 2254.570312 1939.550781 2251.609375 1935.660156 2184.628906 1770.328125 C 2146.890625 1677.199219 2116.011719 1591.191406 2116.011719 1579.210938 C 2116.011719 1564.351562 2146.851562 1568.429688 2212.921875 1592.011719 C 2266.21875 1611.039062 2348.800781 1629.28125 2396.429688 1632.539062 L 2483.03125 1638.46875 L 2494.089844 1770.128906 C 2500.160156 1842.550781 2510.96875 2077.328125 2518.089844 2291.863281 L 2531.050781 2681.933594 L 2413.378906 2760.523438 C 2162.300781 2928.210938 1919.078125 3041.972656 1661.191406 3112.347656 C 1571.628906 3136.789062 1482.480469 3163.585938 1463.089844 3171.890625 C 1443.691406 3180.199219 1496.691406 3102.300781 1580.839844 2998.785156 Z M 953.527344 3140.21875 C 740.167969 3095.960938 488.921875 2983.738281 203.121094 2805.042969 L 0 2678.039062 L 9.855469 2441.378906 C 18.621094 2230.902344 58.46875 1841.058594 85.808594 1698.269531 C 94.78125 1651.429688 103.308594 1646.199219 170.835938 1646.199219 C 238.261719 1646.199219 424.558594 1599.441406 510.996094 1560.820312 C 542.9375 1546.558594 543.015625 1548.339844 513.140625 1610.308594 C 474.582031 1690.289062 291.050781 1953.25 259.488281 1973.730469 C 222.136719 1997.980469 231.121094 2026.761719 319.832031 2167.050781 C 412.339844 2313.351562 850.046875 2893.347656 991.226562 3056.707031 C 1040.71875 3113.972656 1070.328125 3159.890625 1057.039062 3158.75 C 1043.738281 3157.609375 997.160156 3149.269531 953.527344 3140.21875 Z M 1292.589844 3119.226562 C 1293.191406 2911.429688 1768.378906 1343.28125 1830.75 1343.28125 C 1860.488281 1343.28125 1970.269531 1532.171875 2034.308594 1693.53125 C 2071.5 1787.25 2109.128906 1872.019531 2117.921875 1881.910156 C 2163.878906 1933.601562 2132.429688 1949.128906 1981.738281 1949.128906 C 1894.890625 1949.128906 1829.558594 1957.050781 1829.558594 1967.570312 C 1829.558594 1997.429688 1921.671875 2039.148438 2017.78125 2052.839844 C 2066.890625 2059.828125 2117.671875 2069.121094 2130.640625 2073.5 C 2152.179688 2080.75 2080.730469 2177.773438 1769.109375 2564.441406 C 1727.148438 2616.507812 1602.738281 2772.441406 1492.640625 2910.964844 C 1341.078125 3101.648438 1292.488281 3152.234375 1292.589844 3119.226562 Z M 1038.441406 2930.882812 C 859.425781 2706.3125 461.988281 2172.21875 432.253906 2116.269531 C 418.449219 2090.289062 425.84375 2082.230469 473.5 2071.328125 C 546.695312 2054.589844 665.84375 2000.941406 665.84375 1984.730469 C 665.84375 1966.679688 594.796875 1949.679688 518.140625 1949.390625 C 481.214844 1949.230469 451 1943.96875 451 1937.660156 C 451 1931.351562 471.476562 1900.460938 496.5 1869.011719 C 521.527344 1837.558594 585.804688 1734.089844 639.34375 1639.089844 C 765.097656 1415.929688 804.238281 1362.640625 814.792969 1400.199219 C 819.164062 1415.75 851.90625 1530.710938 887.550781 1655.671875 C 923.195312 1780.621094 952.34375 1891.949219 952.328125 1903.058594 C 952.308594 1914.160156 1004.75 2127.160156 1068.859375 2376.375 C 1190.429688 2848.929688 1227.941406 3032.421875 1217.871094 3105.265625 C 1212.859375 3141.527344 1184 3113.488281 1038.441406 2930.882812 Z M 1374.640625 1760.699219 C 1341.828125 1688.300781 1310.179688 1609.640625 1304.308594 1585.898438 C 1290.28125 1529.160156 1274.488281 1548.191406 1193.730469 1719.210938 C 1150.410156 1810.949219 1121.929688 1852.089844 1110.269531 1839.769531 C 1091.960938 1820.410156 1006 1525.070312 1006 1481.511719 C 1006 1447.441406 1086.050781 1451.390625 1193.988281 1490.78125 C 1267.890625 1517.75 1294.589844 1519.589844 1347.070312 1501.351562 C 1382.03125 1489.199219 1448.5 1473.261719 1494.769531 1465.921875 C 1569.460938 1454.070312 1578.898438 1456.539062 1578.78125 1487.859375 C 1578.5 1557.421875 1466.660156 1892.328125 1443.699219 1892.328125 C 1438.519531 1892.328125 1407.441406 1833.089844 1374.640625 1760.699219 Z M 1018.5 1164.480469 C 862.960938 1105.808594 716.816406 942 665.640625 768.980469 C 632.722656 657.679688 649.503906 441.058594 698.890625 339.839844 C 759.835938 214.929688 870.980469 103.488281 991.785156 46.160156 C 1088.71875 0.148438 1114.28125 -3.75 1280.339844 2.101562 C 1493.679688 9.609375 1587.839844 49.5 1715.53125 186.449219 C 1918.308594 403.941406 1916.589844 789.621094 1711.851562 1012.390625 C 1585.699219 1149.648438 1480.839844 1191.578125 1265.601562 1190.800781 C 1161.890625 1190.429688 1057.929688 1179.351562 1018.5 1164.480469 Z M 1018.5 1164.480469 "/>
</svg>
